<svg version="1.1" id="Layer_1" xmlns="http://www.w3.org/2000/svg" xmlns:xlink="http://www.w3.org/1999/xlink" x="0px" y="0px"
	 width="100%" viewBox="0 0 400 400" enable-background="new 0 0 400 400" xml:space="preserve">
<path fill="#000000" opacity="1.000000" stroke="none" 
	d="
M187.031586,61.709435 
	C244.537064,51.092918 303.512512,90.906815 315.858490,150.956024 
	C328.914093,214.456573 288.609192,277.808807 221.896805,288.090790 
	C167.065369,296.541595 113.278664,261.953918 97.861443,207.117798 
	C79.943779,143.388138 116.103363,79.150314 181.726028,62.803020 
	C183.338440,62.401360 184.974030,62.092697 187.031586,61.709435 
M281.703766,219.719818 
	C285.534790,219.703888 289.376434,219.502014 293.194092,219.720276 
	C297.707947,219.978363 299.268646,217.598511 299.734344,213.414932 
	C293.008972,213.414932 286.594299,213.414932 280.179657,213.414932 
	C285.812103,210.329285 291.937653,209.929031 297.874573,209.005112 
	C302.557434,208.276352 303.391357,205.769653 303.221222,201.918610 
	C300.758423,200.724564 298.377960,201.159744 296.148224,201.514267 
	C272.296844,205.306595 250.172928,213.632050 230.334763,227.504486 
	C222.217285,233.180862 215.217468,240.118271 211.140564,249.410355 
	C210.088455,251.808273 208.507980,254.387146 210.023132,257.355927 
	C210.874527,257.103271 211.383926,257.044769 211.794464,256.811920 
	C212.806824,256.237793 213.819138,255.644806 214.752365,254.952744 
	C235.717377,239.405609 259.408783,232.390411 285.330170,232.729721 
	C290.182922,232.793259 292.233337,230.554749 293.503326,225.742798 
	C271.721375,224.962646 251.366821,229.534637 231.304184,239.017746 
	C232.015427,235.744553 233.738739,235.256012 235.092911,234.391281 
	C249.025757,225.494278 264.480164,221.347382 281.703766,219.719818 
M147.521637,210.092422 
	C134.913406,205.294312 121.984421,202.004990 108.390297,201.172073 
	C108.544937,207.631424 108.724678,207.870285 114.152809,208.904373 
	C117.418976,209.526581 120.714706,210.009125 123.957779,210.731277 
	C126.010078,211.188263 128.388947,211.057892 130.461807,213.484085 
	C123.917007,213.739410 118.020760,212.596573 112.153465,213.587463 
	C112.585129,218.348083 114.874321,219.899307 119.176376,219.739807 
	C139.846588,218.973480 159.107620,223.852570 176.791885,234.687775 
	C178.191833,235.545517 180.057037,236.019852 180.596268,239.333405 
	C160.441269,229.288712 139.890182,225.170822 118.308144,225.712021 
	C119.272820,231.529312 122.501152,232.854965 127.628830,232.789185 
	C152.523468,232.469894 175.210114,239.521896 195.543396,254.006836 
	C197.308212,255.264069 198.987518,257.096771 201.601486,256.711365 
	C202.203934,253.820648 201.425110,251.496613 200.318893,249.228333 
	C196.824936,242.063934 191.802216,236.138367 185.648560,231.131729 
	C174.413101,221.990509 161.722229,215.468109 147.521637,210.092422 
M234.558228,174.021622 
	C225.535904,186.420776 216.840088,199.014664 210.789734,213.220230 
	C209.607788,215.995316 208.505051,218.697830 210.670944,222.252975 
	C212.299545,220.037247 213.827255,218.308609 214.963181,216.352463 
	C219.744324,208.119202 225.339951,200.479034 231.351395,193.114716 
	C242.307053,179.693451 253.955231,166.892944 265.897888,154.354156 
	C268.104004,152.037918 269.511688,149.816116 265.969452,147.455811 
	C262.935669,145.434296 260.462982,140.904510 256.315918,146.382187 
	C249.384262,155.537857 242.111557,164.435303 234.558228,174.021622 
M195.730743,202.736237 
	C184.351593,182.041885 169.321487,163.988495 154.570374,145.726715 
	C152.351593,142.979874 150.458145,143.233093 147.881042,145.248749 
	C141.858688,149.959076 141.747101,150.141586 146.620499,155.429413 
	C147.861450,156.775894 149.159592,158.069489 150.418793,159.399384 
	C165.647705,175.483368 180.884140,191.561783 192.895859,210.328522 
	C195.536407,214.454041 198.154861,218.593719 201.290237,223.523666 
	C203.131821,215.092178 198.776978,209.467361 195.730743,202.736237 
M202.616806,165.500061 
	C202.604202,155.847000 202.602692,146.193893 202.572083,136.540878 
	C202.563156,133.725159 201.930099,130.917252 202.630722,128.091629 
	C203.094650,126.220627 204.184540,125.084846 206.094986,125.173347 
	C208.028137,125.262924 209.062592,126.551460 209.209167,128.442551 
	C209.324692,129.933060 209.320541,131.435028 209.321091,132.931931 
	C209.327774,151.073166 209.297592,169.214508 209.367767,187.355469 
	C209.374954,189.214432 208.570389,191.360153 210.598068,193.109756 
	C213.321732,191.553116 212.858719,188.927475 212.861572,186.544937 
	C212.888657,163.910141 212.884018,141.275284 212.892487,118.640457 
	C212.895721,109.987366 212.900421,109.987289 204.395905,110.413445 
	C203.897461,110.438423 203.399048,110.464676 202.900787,110.493057 
	C199.710297,110.674728 198.276550,112.105515 198.292068,115.554016 
	C198.399857,139.519867 198.347900,163.486481 198.333786,187.452850 
	C198.331985,190.515106 199.114227,193.221817 202.027298,196.053299 
	C203.169357,185.717361 202.358109,176.089081 202.616806,165.500061 
M231.663132,212.168503 
	C244.197784,199.689240 258.591400,189.476303 272.499298,178.671066 
	C277.578400,174.725037 282.653748,170.774155 287.930603,166.670105 
	C286.860260,165.278717 286.242126,164.318787 285.473145,163.500702 
	C280.077087,157.760254 279.986877,157.680145 274.243713,162.832489 
	C260.995422,174.717834 247.997314,186.872559 236.476288,200.484070 
	C230.329147,207.746613 224.414658,215.206299 219.986313,223.747650 
	C224.539001,220.855087 227.320786,216.217545 231.663132,212.168503 
M160.379288,195.080383 
	C170.793549,203.282242 180.583313,212.184357 189.835312,221.742249 
	C190.025024,221.026154 190.011490,220.526947 189.780960,220.166504 
	C174.703583,196.590485 154.248520,178.001282 133.593796,159.596085 
	C132.396072,158.528793 131.228088,158.432236 130.082779,159.571793 
	C127.892372,161.751266 125.209785,163.525818 123.781311,166.835037 
	C135.889252,176.175613 147.856064,185.407318 160.379288,195.080383 
M243.023041,131.460083 
	C239.438156,128.841248 236.991974,129.322357 234.986176,133.634583 
	C230.997330,142.210083 226.379883,150.496216 222.483566,159.110611 
	C220.006927,164.586243 220.585327,170.525620 221.147064,176.610031 
	C223.064377,175.787018 223.506943,174.456772 224.209412,173.376892 
	C231.359589,162.385178 238.485016,151.377365 245.618454,140.374741 
	C249.029800,135.113083 249.030807,135.113739 243.023041,131.460083 
M175.548340,154.990417 
	C179.980499,161.698608 184.412674,168.406784 188.792221,175.035324 
	C190.748032,174.075928 190.603088,172.821777 190.650757,171.707169 
	C190.885681,166.214600 190.524445,161.046661 187.632309,155.913269 
	C182.696655,147.152786 178.590347,137.925049 174.239136,129.103378 
	C171.048096,129.163605 169.521027,131.212265 167.459274,132.150314 
	C163.074692,134.145233 163.194366,136.761017 165.758820,140.309753 
	C169.060776,144.879059 172.042847,149.679520 175.548340,154.990417 
M117.467087,192.495911 
	C116.396774,196.177689 119.752075,195.226456 121.102051,195.497971 
	C133.362778,197.963821 145.339050,201.293884 156.887619,206.144882 
	C159.001511,207.032837 161.044434,208.492157 164.209244,208.342636 
	C158.245163,201.385132 149.350739,201.479706 142.229004,196.915314 
	C144.373871,194.606750 144.572861,192.639236 141.986526,190.930374 
	C137.964630,188.272934 133.989349,185.534805 130.115555,182.667068 
	C127.653404,180.844345 125.922508,181.431824 124.251648,183.688629 
	C122.173660,186.495316 119.995911,189.228134 117.467087,192.495911 
M247.400345,207.647247 
	C247.507812,207.922424 247.584213,208.217560 247.740753,208.461212 
	C247.790817,208.539139 248.073242,208.532654 248.215317,208.477341 
	C258.258911,204.569443 268.311859,200.682053 278.785400,198.044022 
	C283.868103,196.763809 288.986145,195.623856 294.162048,194.402969 
	C293.122955,191.936798 287.643372,183.950195 286.431885,183.055435 
	C285.922089,182.678940 285.326447,182.238983 284.735901,182.182449 
	C282.155670,181.935486 270.803741,190.535736 270.402618,193.351349 
	C269.906342,196.835297 267.942780,198.341919 264.828094,199.491531 
	C258.958038,201.658142 252.680237,203.016632 247.400345,207.647247 
M249.705383,100.859871 
	C247.532867,97.018166 244.380661,94.852829 239.873077,95.840584 
	C235.122559,96.881577 232.337387,101.606415 233.501434,106.119713 
	C234.595917,110.363335 239.199570,113.289093 243.497421,112.472511 
	C248.347168,111.551056 251.008850,107.084984 249.705383,100.859871 
M165.783569,245.939987 
	C163.577850,243.456833 160.368118,243.676483 157.538956,242.985764 
	C147.863464,240.623596 138.074921,239.558411 127.961372,240.536392 
	C128.240234,243.941681 130.112610,244.200134 132.519699,244.086914 
	C135.332932,243.954590 138.653915,243.200943 140.892365,244.369110 
	C148.104813,248.132980 155.981705,245.805420 163.330688,247.626465 
	C164.253555,247.855148 165.353577,247.703522 165.783569,245.939987 
M271.638855,243.852203 
	C274.298187,243.915283 276.971771,243.829605 279.612915,244.082687 
	C282.330505,244.343079 283.483887,243.203735 283.890656,240.339935 
	C271.741577,240.011108 260.151917,240.513336 248.381165,244.761948 
	C251.064651,247.887436 253.447784,246.631119 255.635574,246.515594 
	C260.778717,246.244034 265.292389,242.386063 271.638855,243.852203 
M212.420258,86.770416 
	C209.903564,85.219368 207.965240,82.995567 205.919357,80.507729 
	C203.853256,83.188927 201.835114,85.223740 198.582474,87.140640 
	C202.513275,88.180504 203.640503,91.443832 206.489395,92.738876 
	C208.151993,90.356468 210.085602,88.602478 212.420258,86.770416 
M190.685471,136.820648 
	C190.685471,134.908920 190.685471,132.997192 190.685471,130.764206 
	C187.537048,132.564392 186.232407,134.732437 187.826721,137.744064 
	C188.599960,139.204666 189.922409,140.249451 190.685471,136.820648 
M177.927872,104.402893 
	C179.455368,103.207214 178.977341,102.111511 177.640121,101.258072 
	C175.777679,100.069443 175.063110,101.679085 174.096359,102.857918 
	C174.980301,104.043289 175.556351,105.605812 177.927872,104.402893 
z"/>
<path fill="#000000" opacity="1.000000" stroke="none" 
	d="
M285.973541,324.025879 
	C286.552887,323.214172 287.041382,322.314697 287.726593,321.605194 
	C291.730896,317.459106 293.014099,313.266693 288.214935,308.780243 
	C287.758362,308.353394 287.536682,307.643524 287.298859,307.029053 
	C287.195068,306.760895 287.325775,306.401947 287.358673,305.970184 
	C291.137756,303.211731 293.246033,306.911865 296.124573,308.612244 
	C298.538757,305.072418 301.972260,304.714020 305.808685,304.908752 
	C308.931732,305.067322 309.906952,306.419037 309.664764,309.297424 
	C309.497772,311.282074 309.421722,313.292114 309.535248,315.277649 
	C309.651733,317.315063 310.059784,319.630920 312.735046,319.423676 
	C315.002533,319.248016 315.283630,317.114166 315.335663,315.219604 
	C315.399506,312.894592 315.405090,310.567169 315.392609,308.241028 
	C315.381805,306.223389 316.240967,305.140625 318.358551,305.117828 
	C320.514618,305.094635 321.341797,306.230804 321.319092,308.226990 
	C321.279388,311.716583 321.532532,315.241089 321.123871,318.687012 
	C320.602661,323.082245 316.756714,325.906586 312.234009,325.766418 
	C307.623871,325.623535 304.187744,322.671173 303.791626,318.169586 
	C303.546478,315.383362 303.746155,312.557983 303.746155,308.451569 
	C301.123962,311.709015 297.894592,313.287537 300.123383,317.108978 
	C301.594604,319.631531 304.067108,321.586395 304.631317,324.660553 
	C299.705566,327.706360 298.257812,322.865021 295.512512,320.787445 
	C292.789490,323.162689 291.011139,327.900940 286.122528,324.240631 
	C286.000732,323.992432 285.973541,324.025879 285.973541,324.025879 
z"/>
<path fill="#000000" opacity="1.000000" stroke="none" 
	d="
M252.946747,305.650574 
	C255.479187,308.325470 257.681549,310.805145 260.449493,313.921600 
	C260.715271,311.425903 260.859009,309.575745 261.122559,307.742798 
	C261.382812,305.932953 262.684021,305.301819 264.337616,305.247467 
	C266.199127,305.186279 267.137360,306.230652 267.146515,307.990845 
	C267.172485,312.983093 267.131653,317.976044 267.074585,322.968201 
	C267.060028,324.242554 266.487152,325.188568 265.124359,325.499237 
	C263.329498,325.908447 261.844574,325.437164 260.653564,324.028564 
	C258.631866,321.637512 256.605072,319.250732 253.711517,315.837128 
	C253.563126,318.888397 253.425186,320.754669 253.395081,322.622650 
	C253.366287,324.409180 252.733551,325.456360 250.751068,325.386505 
	C249.027023,325.325745 247.796921,324.765320 247.781662,322.835510 
	C247.742188,317.843475 247.573425,312.843262 247.797714,307.861664 
	C247.939407,304.714661 250.343124,304.943878 252.946747,305.650574 
z"/>
<path fill="#000000" opacity="1.000000" stroke="none" 
	d="
M162.589951,307.523132 
	C164.518906,309.793976 165.207458,312.545868 163.894104,314.308472 
	C161.048401,318.127655 162.268707,321.224060 164.769974,324.545288 
	C158.596054,328.056793 157.440353,321.165283 154.119003,319.702942 
	C151.865555,320.484772 152.535461,322.272766 152.207321,323.610260 
	C151.801910,325.262665 150.551010,325.547272 149.168671,325.579163 
	C147.542175,325.616699 146.724731,324.717865 146.719009,323.124725 
	C146.701126,318.148895 146.726578,313.172913 146.701370,308.197144 
	C146.690613,306.073303 147.946014,305.218964 149.810623,305.116180 
	C154.124252,304.878448 158.458496,304.642029 162.589951,307.523132 
z"/>
<path fill="#000000" opacity="1.000000" stroke="none" 
	d="
M189.830780,314.072754 
	C190.322525,310.829193 188.472961,307.371735 191.899017,305.482880 
	C194.725266,303.924744 204.140213,305.421204 206.227356,307.564575 
	C208.129852,309.518311 208.744675,311.835449 207.855911,314.448883 
	C206.068787,319.703949 206.052734,319.698486 207.844406,324.305603 
	C204.732132,325.593994 204.732132,325.593994 197.728043,319.817993 
	C197.430328,319.935333 196.969009,319.977753 196.864960,320.192963 
	C195.834106,322.324768 196.557846,326.148041 192.345261,325.237000 
	C188.727402,324.454559 190.185699,321.296600 189.895126,319.041321 
	C189.705170,317.566895 189.842041,316.050385 189.830780,314.072754 
M200.850128,312.988251 
	C199.331757,309.831757 199.211853,309.815582 196.564819,312.440216 
	C197.496185,314.138367 198.961441,313.646332 200.850128,312.988251 
z"/>
<path fill="#000000" opacity="1.000000" stroke="none" 
	d="
M132.204620,304.971558 
	C135.166275,304.978424 137.661926,305.002258 140.157639,305.015656 
	C142.470184,305.028076 143.393234,306.238190 143.357605,308.483459 
	C143.321304,310.770844 141.920746,311.185150 140.054672,311.237823 
	C138.518967,311.281219 136.878784,310.830109 135.230728,311.765900 
	C137.303497,313.975159 142.415359,310.665588 142.017258,315.803680 
	C141.692169,319.999664 137.618179,317.412079 135.206879,319.043030 
	C137.099548,320.325653 139.061996,319.584534 140.809250,319.777161 
	C142.529892,319.966827 143.707947,320.542694 143.667740,322.467529 
	C143.632004,324.178162 142.938339,325.373596 141.023895,325.384308 
	C137.372421,325.404755 133.719269,325.460358 130.069839,325.373901 
	C128.084366,325.326843 127.742081,323.798004 127.726204,322.192413 
	C127.681801,317.699524 127.716652,313.205231 127.616615,308.713806 
	C127.551323,305.782013 129.273529,305.019714 132.204620,304.971558 
z"/>
<path fill="#000000" opacity="1.000000" stroke="none" 
	d="
M286.012451,323.974274 
	C281.420074,326.942932 276.370850,325.059479 271.526123,325.161499 
	C269.890045,325.195923 269.867065,323.324097 269.829590,321.994751 
	C269.763885,319.663208 269.768768,317.329407 269.760132,314.996521 
	C269.723663,305.141998 273.305176,302.508240 283.126495,304.997559 
	C285.212494,305.526306 285.792297,306.880554 285.698212,308.652344 
	C285.602051,310.462738 284.308868,311.130402 282.608673,311.241425 
	C280.976654,311.348053 279.289368,310.745514 277.377258,311.732758 
	C279.271088,313.978363 284.775726,310.687775 284.192200,315.986359 
	C283.700684,320.449097 279.296478,317.029541 277.420013,319.066803 
	C279.848999,321.419922 285.504395,317.022949 285.965454,323.615906 
	C285.973541,324.025879 286.000732,323.992432 286.012451,323.974274 
z"/>
<path fill="#000000" opacity="1.000000" stroke="none" 
	d="
M182.450989,310.578949 
	C184.595688,315.436707 186.591782,319.945587 188.596451,324.473816 
	C185.967438,325.974243 184.129807,326.196198 182.194763,324.357178 
	C178.936874,321.260925 175.498260,321.240814 172.204773,324.364410 
	C170.468735,326.010925 168.657242,325.731384 166.147202,324.765442 
	C168.081024,318.543640 170.655396,312.624542 173.832367,307.072693 
	C176.034821,303.223816 179.770172,304.713531 182.450989,310.578949 
z"/>
<path fill="#000000" opacity="1.000000" stroke="none" 
	d="
M338.038452,307.360474 
	C337.896851,312.991730 334.343719,311.719788 330.838654,310.639496 
	C331.796875,312.895874 333.560181,312.415375 334.847321,312.916809 
	C337.544373,313.967438 339.357788,315.616333 339.333191,318.803711 
	C339.309387,321.888031 337.753571,323.852905 335.040100,324.898193 
	C331.971100,326.080475 328.841827,326.050476 325.820343,324.627319 
	C324.456665,323.984985 322.864807,323.259033 323.573456,321.347961 
	C324.188782,319.688477 325.393799,318.556915 327.453217,319.142426 
	C328.849152,319.539246 330.236023,320.320587 332.054169,319.260315 
	C330.513550,318.641937 329.162018,318.204163 327.906830,317.574402 
	C325.051178,316.141602 322.824585,314.165771 323.487366,310.574768 
	C324.168549,306.884125 326.940247,305.415009 330.304382,305.011719 
	C333.031616,304.684814 335.564484,305.546783 338.038452,307.360474 
z"/>
<path fill="#000000" opacity="1.000000" stroke="none" 
	d="
M175.127655,338.919617 
	C172.134079,340.489258 172.123764,342.011108 174.688324,343.635376 
	C178.358719,340.532288 182.867355,338.907410 186.206161,335.529877 
	C186.937912,334.789642 188.733932,334.871277 190.011230,334.964874 
	C191.304123,335.059631 192.847626,335.521271 192.939499,337.132935 
	C193.042450,338.939209 191.642166,338.892212 190.195419,339.067871 
	C186.353516,339.534271 186.168533,340.028381 188.008041,343.775055 
	C189.381470,342.370758 190.103882,339.523346 192.771973,340.917938 
	C194.418915,341.778748 194.091827,343.478882 193.833160,344.928741 
	C193.328690,347.756256 190.872925,347.830414 188.803207,348.001190 
	C185.873199,348.242950 184.027832,346.083771 181.868576,343.754608 
	C180.632339,346.930756 178.163864,347.785675 175.480255,347.959808 
	C171.600113,348.211578 168.074051,344.862335 168.252747,341.326355 
	C168.437897,337.662811 172.045959,334.442078 175.720551,334.842072 
	C177.307678,335.014771 179.594803,335.202026 179.552887,337.201721 
	C179.492981,340.058655 177.166870,339.169830 175.127655,338.919617 
z"/>
<path fill="#000000" opacity="1.000000" stroke="none" 
	d="
M113.682297,317.131622 
	C113.869759,313.689087 113.756599,311.004791 109.685806,310.739166 
	C107.797096,310.615936 107.504837,308.945984 107.556984,307.365784 
	C107.624756,305.312103 109.188660,305.048004 110.718185,305.021790 
	C114.692612,304.953644 118.669281,304.957031 122.644203,305.004089 
	C124.386543,305.024719 125.975723,305.400665 126.219254,307.598846 
	C126.451340,309.693726 125.338722,310.759094 123.449577,310.957916 
	C120.287529,311.290680 119.915062,313.375885 119.990570,315.919189 
	C120.049538,317.904907 120.009369,319.895233 119.958496,321.882111 
	C119.907440,323.876007 119.414177,325.494263 116.903557,325.497162 
	C114.526306,325.499878 113.698181,324.214294 113.718422,322.050018 
	C113.732361,320.559326 113.695984,319.068115 113.682297,317.131622 
z"/>
<path fill="#000000" opacity="1.000000" stroke="none" 
	d="
M226.056305,314.109558 
	C223.034302,317.314514 223.313858,321.099091 223.252136,324.721069 
	C219.476410,326.091248 217.428329,325.350586 217.666031,321.242706 
	C217.899231,317.213013 215.135422,314.510803 213.417053,311.334381 
	C212.499146,309.637604 210.772797,308.308960 210.861206,306.126129 
	C214.817703,304.692261 214.817703,304.692261 220.851166,310.868378 
	C223.272949,308.016235 224.849854,303.415222 230.335938,305.652374 
	C230.244537,308.990692 227.647354,311.115356 226.056305,314.109558 
z"/>
<path fill="#000000" opacity="1.000000" stroke="none" 
	d="
M76.931641,305.256958 
	C80.772240,307.573547 79.144508,311.073700 79.140404,313.949554 
	C79.134689,317.939240 79.786713,320.451996 84.535797,319.879425 
	C86.441597,319.649628 88.274178,320.054932 88.345123,322.637299 
	C88.416046,325.218506 86.539772,325.462921 84.675133,325.702911 
	C84.185959,325.765900 83.682678,325.730530 83.186127,325.723114 
	C72.860634,325.569061 72.858261,325.568604 72.832596,315.297211 
	C72.827202,313.141022 72.864182,310.984619 72.849564,308.828552 
	C72.832779,306.351746 74.061844,305.167999 76.931641,305.256958 
z"/>
<path fill="#000000" opacity="1.000000" stroke="none" 
	d="
M263.905609,342.252441 
	C263.777954,344.096375 263.777954,345.555725 263.777954,347.165527 
	C261.007935,349.481293 259.971863,346.229187 258.155731,345.160065 
	C256.748199,345.914825 256.619476,348.975616 254.118744,347.720581 
	C252.264587,346.790039 252.861923,344.845551 252.726562,343.250763 
	C252.670486,342.589905 252.781448,341.912537 252.702454,341.256378 
	C252.177780,336.898132 253.183838,334.156494 258.485718,334.711792 
	C263.338867,335.220093 264.467743,336.408691 263.905609,342.252441 
z"/>
<path fill="#000000" opacity="1.000000" stroke="none" 
	d="
M99.058891,321.343384 
	C99.065155,317.088348 99.058212,313.259857 99.086113,309.431610 
	C99.103432,307.055756 99.649216,305.051392 102.626976,305.087891 
	C105.639534,305.124786 105.438538,307.361115 105.433609,309.358246 
	C105.423744,313.352356 105.322021,317.346130 105.287186,321.340302 
	C105.269295,323.391174 105.455826,325.384521 102.405090,325.486633 
	C99.593056,325.580780 98.968651,324.092010 99.058891,321.343384 
z"/>
<path fill="#000000" opacity="1.000000" stroke="none" 
	d="
M196.676102,341.970367 
	C196.678192,340.686127 196.629257,339.848999 196.694016,339.020782 
	C196.805527,337.594971 196.318161,335.800415 198.262787,335.246155 
	C199.782928,334.812927 200.727173,336.021759 201.596893,337.008942 
	C202.359665,337.874725 202.962845,338.881073 203.528427,339.673828 
	C205.481476,338.646942 204.867752,337.221588 205.442230,336.275299 
	C205.915100,335.496429 206.426910,334.941956 207.392822,335.096893 
	C208.317459,335.245239 208.824615,335.852661 209.018021,336.739685 
	C209.088669,337.063721 209.190643,337.400940 209.164612,337.722961 
	C208.902985,340.958313 210.757065,345.063446 208.065979,347.223114 
	C205.043915,349.648438 204.086578,344.061218 201.172668,343.942047 
	C199.588074,344.720001 201.008698,347.959747 197.987976,347.742096 
	C195.924850,346.475433 196.966049,344.262573 196.676102,341.970367 
z"/>
<path fill="#000000" opacity="1.000000" stroke="none" 
	d="
M157.563370,335.271118 
	C161.722122,334.410309 164.529282,335.876678 165.939133,339.326691 
	C167.027115,341.989105 166.324646,344.704102 163.929504,346.412445 
	C161.349823,348.252502 158.434250,348.602295 155.589096,346.746155 
	C151.225250,343.899261 151.974442,338.618835 157.563370,335.271118 
M160.801682,343.133698 
	C162.044418,341.590912 162.234970,340.175079 160.059891,339.404633 
	C159.064102,339.051910 158.015137,339.587128 157.712982,340.591400 
	C157.072983,342.718750 158.154556,343.572266 160.801682,343.133698 
z"/>
<path fill="#000000" opacity="1.000000" stroke="none" 
	d="
M90.498360,308.554932 
	C90.618790,305.723541 92.126282,305.031708 94.213676,305.299866 
	C96.191559,305.553925 96.276276,307.160736 96.280899,308.689117 
	C96.297287,314.104919 96.287285,319.520844 96.287285,324.817413 
	C91.784760,326.308838 89.717270,325.648315 90.230011,320.821686 
	C90.646233,316.903564 90.400879,312.915222 90.498360,308.554932 
z"/>
<path fill="#000000" opacity="1.000000" stroke="none" 
	d="
M247.073212,341.657837 
	C246.437744,342.502563 245.844177,343.033234 245.194946,343.613678 
	C246.390808,344.489960 249.163025,343.404419 248.995529,346.109589 
	C248.869995,348.137207 247.022644,348.209351 245.563431,348.128815 
	C243.105225,347.993134 239.673904,349.337952 239.032867,345.483856 
	C238.578171,342.750061 238.944427,339.848053 239.184418,337.041656 
	C239.342941,335.187836 240.879929,334.676300 242.502579,334.780365 
	C244.587784,334.914185 247.659195,333.713501 248.528000,335.799469 
	C250.386597,340.261841 245.496445,337.409576 244.385574,338.988312 
	C244.947830,340.173279 247.169785,339.479034 247.073212,341.657837 
z"/>
<path fill="#000000" opacity="1.000000" stroke="none" 
	d="
M267.761108,339.159607 
	C268.638397,335.305115 274.162262,333.166595 276.969452,335.198395 
	C278.421051,336.249054 278.305878,337.525574 276.708282,338.228821 
	C275.709991,338.668243 274.459869,338.535553 272.818420,338.714630 
	C275.374359,340.317627 278.827118,341.852844 272.463715,343.860626 
	C274.528229,344.083466 275.765930,343.984772 276.814911,344.383087 
	C278.512787,345.027832 278.574646,346.576813 277.277832,347.439514 
	C275.083496,348.899200 272.447754,348.326416 270.032684,347.944122 
	C267.614777,347.561401 267.818665,345.407715 267.753235,343.600525 
	C267.705353,342.277344 267.746948,340.950958 267.761108,339.159607 
z"/>
<path fill="#000000" opacity="1.000000" stroke="none" 
	d="
M136.802032,346.748322 
	C132.601456,348.249115 132.601456,348.249115 128.417953,346.193665 
	C128.407242,343.955505 129.685928,341.729401 128.826294,339.210297 
	C128.148682,337.224548 129.839661,335.921539 131.675507,335.197266 
	C133.719437,334.390839 136.070450,334.597351 137.155640,336.191742 
	C138.950897,338.829285 136.622986,338.941406 134.218353,339.116882 
	C137.410400,340.860748 140.044510,342.796661 136.802032,346.748322 
z"/>
<path fill="#000000" opacity="1.000000" stroke="none" 
	d="
M227.405411,336.641968 
	C227.456940,338.206818 227.573410,339.386871 229.135529,339.565369 
	C230.498093,339.721069 231.373032,339.135315 231.624023,337.739014 
	C231.859024,336.431885 231.930634,334.800323 233.864273,335.220093 
	C235.610703,335.599243 235.214798,337.271759 235.299881,338.530457 
	C235.389496,339.856049 235.451019,341.202209 235.320999,342.519287 
	C235.151306,344.238281 236.174438,346.656647 234.084061,347.447998 
	C231.495148,348.428040 232.161362,345.555145 231.325119,344.396606 
	C230.326385,343.012939 229.071106,343.212524 227.969055,344.390411 
	C227.089447,345.330536 227.570282,347.119415 225.976318,347.633179 
	C223.586121,345.877319 222.551117,337.014069 224.641739,335.410492 
	C225.749329,334.560913 226.839142,334.834442 227.405411,336.641968 
z"/>
<path fill="#000000" opacity="1.000000" stroke="none" 
	d="
M145.295807,338.970215 
	C145.120972,341.992645 145.600754,344.014526 148.869141,344.061462 
	C150.016876,344.077942 151.284882,344.445129 151.166428,346.047272 
	C151.059937,347.487579 149.941193,348.055420 148.738922,348.028931 
	C146.394592,347.977386 143.096909,349.351318 142.135040,346.379852 
	C141.045013,343.012421 140.248032,338.600220 142.576462,335.910309 
	C144.456665,333.738190 145.031784,336.848907 145.295807,338.970215 
z"/>
</svg>